<?xml version="1.0" standalone="no"?>
<!DOCTYPE svg PUBLIC "-//W3C//DTD SVG 20010904//EN"
 "http://www.w3.org/TR/2001/REC-SVG-20010904/DTD/svg10.dtd">
<svg version="1.0" xmlns="http://www.w3.org/2000/svg"
 width="24" height="24" viewBox="0 0 512.000000 512.000000"
 preserveAspectRatio="xMidYMid meet">
<metadata>
Created by potrace 1.16, written by Peter Selinger 2001-2019
</metadata>
<g transform="translate(0.000000,512.000000) scale(0.100000,-0.100000)"
fill="#C5C5C5" stroke="none">
<path d="M1 4873 c0 -137 2 -243 5 -238 2 6 24 78 49 160 l46 150 21 18 c11 9
32 17 47 17 14 0 160 -40 324 -89 l298 -88 19 -18 20 -18 0 -29 c0 -16 -40
-163 -90 -326 l-90 -297 -26 -22 c-14 -13 -31 -23 -38 -23 -12 0 -535 152
-572 167 l-15 6 3 -34 3 -33 140 -41 c77 -23 200 -59 273 -81 74 -21 142 -47
153 -57 l19 -18 0 -29 c0 -35 -166 -595 -186 -627 -7 -12 -26 -24 -41 -27
l-28 -6 -167 49 -168 49 0 -32 0 -32 97 -28 c54 -15 129 -36 166 -47 l68 -20
16 -33 15 -33 -81 -279 c-45 -154 -88 -294 -96 -311 l-14 -32 -26 -7 c-24 -6
-49 -3 -117 12 l-28 6 0 -29 0 -30 43 -12 c23 -7 52 -22 65 -34 l22 -20 0 -31
c0 -17 -29 -131 -65 -253 l-65 -222 0 -136 0 -136 32 6 33 6 295 -86 295 -85
23 -26 c12 -14 22 -33 22 -43 0 -10 -38 -144 -84 -297 l-84 -278 -22 -18 c-12
-10 -35 -18 -50 -18 -15 0 -122 27 -236 60 -115 33 -213 60 -217 60 -5 0 -7
-14 -5 -32 l3 -32 214 -61 213 -60 19 -24 c10 -13 19 -34 19 -48 0 -14 -36
-145 -81 -292 l-81 -266 -21 -22 -20 -23 -32 0 c-17 0 -77 13 -133 29 l-102
28 0 -63 0 -64 214 0 214 0 -29 29 -29 29 0 24 c0 25 153 536 170 568 13 24
41 40 72 40 27 0 565 -153 596 -169 28 -15 42 -42 41 -78 0 -15 -28 -120 -63
-233 l-62 -205 29 -3 c16 -2 31 -2 33 1 2 2 32 97 66 211 l62 206 18 20 c10
11 29 22 42 26 l24 6 288 -82 c158 -45 296 -86 307 -91 10 -6 25 -26 33 -44
l14 -33 -33 -109 -34 -108 449 -3 449 -2 22 15 c27 19 70 19 135 0 l52 -16
107 3 108 3 -160 45 -160 45 -22 22 c-13 12 -23 31 -23 43 0 20 133 459 166
549 l16 43 33 14 32 13 264 -74 c310 -88 346 -101 359 -125 18 -33 11 -64 -70
-319 -44 -139 -80 -255 -80 -257 0 -3 14 -4 32 -2 l31 3 23 70 c13 39 50 157
84 263 l61 194 34 14 34 14 298 -85 298 -84 23 -26 c12 -14 22 -33 22 -42 0
-8 -20 -79 -45 -157 -25 -79 -45 -148 -45 -154 l0 -12 29 0 29 0 32 102 c18
57 41 126 52 156 l20 52 30 16 29 15 30 -6 c41 -9 43 -20 8 -38 l-32 -15 21
-6 c27 -9 82 -71 82 -94 l1 -17 19 37 c11 20 34 46 51 58 l31 23 76 -22 c43
-12 85 -24 95 -27 l17 -5 0 33 0 34 -107 28 c-60 16 -124 36 -143 44 -19 8
-47 16 -62 17 -38 4 -77 31 -88 61 l-10 25 64 202 c36 111 76 238 90 283 38
119 64 135 166 104 36 -11 71 -20 78 -20 l12 0 0 30 0 29 -70 21 -71 21 -15
32 -15 32 85 266 86 265 0 107 0 106 -29 -10 -29 -10 -303 88 -304 88 -17 17
-18 18 0 30 c0 41 176 589 196 611 8 9 26 20 38 23 l23 6 204 -61 c112 -33
212 -62 222 -65 l18 -6 -3 33 -3 32 -209 62 -208 61 -19 23 c-11 13 -19 32
-19 42 0 10 27 103 59 206 33 104 76 241 96 306 l36 117 31 16 31 16 41 -12
c23 -7 69 -21 104 -31 l62 -18 0 32 0 32 -85 24 c-47 13 -96 31 -107 41 l-22
17 0 34 c0 42 180 618 200 640 l14 16 -1 124 -1 124 -17 -49 c-19 -54 -42 -76
-81 -76 -25 0 -581 159 -626 179 -12 5 -26 22 -31 38 l-10 28 51 170 c29 94
56 180 60 193 l8 23 -33 -3 -33 -3 -54 -175 -54 -175 -21 -22 c-11 -13 -31
-23 -44 -23 -30 0 -633 177 -649 191 -7 5 -15 21 -18 34 l-6 23 20 64 c11 35
20 69 20 76 l0 12 -29 0 -28 0 -18 -65 -17 -65 -26 -20 c-13 -11 -34 -20 -44
-20 -20 0 -511 142 -556 160 -13 6 -74 10 -137 10 l-115 0 16 -33 16 -33 -95
-308 -95 -307 -18 -20 -17 -19 -34 0 c-19 0 -166 39 -326 86 l-292 86 -22 21
c-13 11 -23 31 -23 43 0 13 32 124 70 248 38 123 70 227 70 230 0 3 -13 6 -29
6 l-29 0 -35 -112 c-20 -62 -52 -165 -71 -229 l-36 -116 -18 -17 c-10 -9 -31
-16 -47 -16 -16 0 -162 39 -324 86 l-296 87 -22 20 -23 20 0 25 c0 19 35 148
65 240 l4 12 -32 0 -33 0 -29 -106 -30 -106 -22 -24 -22 -24 -23 0 c-13 0
-161 41 -328 90 l-305 91 -17 21 c-10 11 -18 29 -18 39 l0 19 -80 0 -80 0 1
-247z m2992 141 c106 -31 244 -71 307 -90 l115 -33 17 -22 c10 -11 18 -29 18
-38 0 -9 -43 -153 -94 -321 l-94 -304 -27 -24 -28 -23 -26 6 c-38 9 -496 143
-569 166 l-62 21 -10 18 c-6 10 -10 27 -10 37 0 22 175 594 190 623 12 23 38
39 63 40 10 0 105 -25 210 -56z m905 -264 l307 -90 18 -21 c9 -12 17 -30 17
-41 0 -20 -176 -602 -191 -629 -4 -9 -21 -22 -38 -28 l-29 -13 -293 86 c-162
48 -307 92 -322 98 -30 12 -47 35 -47 65 0 10 43 156 94 323 l95 305 22 17
c11 10 30 18 40 18 11 0 158 -41 327 -90z m-2621 -91 c169 -50 314 -95 321
-102 8 -6 18 -22 23 -34 l9 -23 -61 -198 c-33 -108 -76 -248 -95 -310 l-35
-113 -20 -20 c-10 -10 -30 -19 -43 -19 -14 0 -161 40 -327 90 l-301 89 -19 17
-19 17 0 30 c0 16 41 163 90 326 l91 296 25 23 c14 12 32 22 40 22 8 0 152
-41 321 -91z m3373 -129 c383 -112 380 -111 380 -170 0 -29 -178 -600 -196
-627 -8 -13 -26 -26 -40 -29 l-27 -7 -86 26 c-47 14 -189 56 -315 93 l-228 68
-15 31 -15 31 93 305 93 304 27 28 c15 15 33 27 40 27 8 0 137 -36 289 -80z
m-2560 -110 c135 -39 258 -76 274 -82 l28 -11 13 -31 13 -30 -15 -50 c-8 -28
-51 -168 -94 -311 l-79 -260 -21 -17 c-12 -10 -31 -18 -44 -18 -32 0 -605 169
-632 186 -13 8 -26 26 -29 40 l-7 26 48 157 c70 231 133 433 141 455 4 10 21
24 37 31 l31 13 45 -13 c25 -8 156 -46 291 -85z m803 -234 c141 -41 266 -80
278 -86 11 -6 24 -23 30 -37 l9 -25 -86 -281 c-47 -155 -90 -296 -96 -314 -10
-36 -42 -63 -73 -63 -11 0 -157 41 -325 90 l-305 89 -18 23 -19 23 5 32 c6 34
159 547 179 597 l11 28 31 13 30 13 45 -13 c25 -8 162 -48 304 -89z m759 -222
c161 -47 303 -92 314 -99 12 -8 25 -26 28 -40 l7 -27 -70 -221 c-38 -122 -82
-262 -97 -310 l-27 -88 -21 -14 c-11 -8 -29 -15 -39 -15 -29 0 -609 170 -634
186 -13 8 -25 25 -29 39 l-6 25 92 302 92 303 21 23 20 22 28 0 c15 0 159 -39
321 -86z m-2612 -93 l302 -89 19 -18 19 -17 0 -31 c0 -38 -165 -591 -186 -623
-8 -13 -25 -25 -38 -29 l-25 -6 -298 87 c-164 48 -308 94 -321 102 -13 8 -28
24 -33 37 l-11 23 22 74 c12 41 53 178 92 304 l70 230 21 23 c11 12 30 22 42
22 13 0 158 -40 325 -89z m3392 -136 c158 -47 299 -90 312 -96 14 -7 30 -24
36 -40 l12 -29 -92 -292 c-50 -161 -98 -305 -106 -320 l-14 -28 -25 -6 c-14
-3 -37 -3 -52 0 -100 24 -582 170 -600 182 -13 8 -25 25 -29 38 l-6 25 47 153
c25 84 69 224 96 310 l50 157 22 16 c12 8 30 15 41 15 11 0 149 -38 308 -85z
m-2682 -71 c367 -107 386 -114 404 -133 10 -11 18 -32 18 -47 0 -25 -143 -516
-174 -598 l-11 -28 -33 -14 -32 -13 -307 89 -307 89 -19 17 c-10 9 -21 25 -24
34 l-6 18 81 269 c44 147 87 287 96 311 16 42 46 72 73 72 8 0 117 -30 241
-66z m869 -253 l303 -89 21 -20 20 -21 -1 -28 c-1 -38 -167 -580 -187 -609 -8
-13 -27 -27 -42 -30 l-26 -7 -295 84 c-162 46 -307 92 -323 101 l-29 18 0 36
c0 20 21 104 46 188 26 83 64 208 84 277 21 70 43 136 49 147 13 24 39 41 61
42 8 0 152 -40 319 -89z m789 -230 l303 -88 19 -18 20 -18 0 -33 c0 -30 -158
-554 -182 -601 -6 -12 -23 -27 -38 -33 l-28 -12 -303 87 -304 87 -22 21 -23
20 0 31 c0 17 39 159 86 316 l86 285 25 23 c13 12 32 22 41 22 9 0 153 -40
320 -89z m-2657 -75 c140 -40 279 -81 310 -90 63 -18 77 -30 84 -72 l5 -29
-88 -289 -87 -289 -27 -20 -27 -20 -43 10 c-24 6 -164 45 -313 88 l-270 78
-22 20 -23 20 0 27 c0 15 38 157 85 316 l85 289 21 18 c12 9 29 17 39 17 10 0
132 -33 271 -74z m3447 -156 l307 -90 18 -21 c9 -12 17 -31 17 -42 0 -12 -41
-150 -91 -307 l-91 -285 -21 -22 -20 -23 -30 0 c-28 0 -498 132 -593 166 l-42
15 -12 29 -12 30 88 282 c48 156 94 296 101 311 12 25 41 44 66 46 5 1 147
-40 315 -89z m-2608 -86 c162 -47 305 -92 317 -100 13 -8 25 -25 28 -37 l6
-23 -85 -290 -86 -289 -26 -22 c-14 -13 -35 -23 -46 -23 -22 0 -560 151 -611
172 -31 12 -47 36 -47 68 0 20 62 237 137 478 l35 114 19 19 c10 10 29 19 42
19 13 0 155 -39 317 -86z m-1002 -539 l297 -85 18 -21 c9 -12 17 -33 17 -48 0
-36 -154 -555 -173 -585 -9 -13 -28 -27 -42 -30 l-27 -7 -266 76 c-147 42
-286 83 -310 91 l-42 16 -16 30 -16 30 82 287 82 286 24 23 c14 12 36 22 50
22 13 0 158 -38 322 -85z m3370 -141 l297 -86 18 -20 c9 -11 17 -34 17 -50 0
-17 -41 -156 -90 -309 l-91 -278 -22 -16 c-12 -8 -31 -15 -42 -15 -31 0 -605
167 -622 182 -8 7 -19 23 -24 35 l-9 23 91 288 90 287 25 23 c14 12 34 22 45
22 11 0 153 -39 317 -86z m-2592 -79 l299 -85 23 -25 c12 -15 22 -36 22 -48 0
-12 -38 -148 -85 -302 l-84 -280 -22 -17 c-12 -10 -33 -18 -48 -18 -14 1 -159
38 -321 85 l-294 83 -18 22 c-10 12 -18 33 -18 46 0 23 139 509 162 567 10 26
49 56 74 57 6 0 145 -38 310 -85z m3374 -146 l285 -82 23 -20 22 -20 0 -28 c0
-16 -32 -126 -71 -246 -39 -120 -79 -246 -91 -281 l-20 -62 -21 -15 c-12 -8
-33 -15 -47 -15 -14 0 -154 38 -313 84 l-287 83 -20 18 -20 18 0 32 c0 18 39
154 86 301 l86 269 21 23 20 22 31 0 c17 0 159 -37 316 -81z m-2582 -80 l294
-82 19 -20 19 -21 0 -30 c0 -17 -38 -155 -85 -306 l-84 -274 -23 -18 c-13 -10
-32 -18 -43 -18 -11 0 -150 36 -310 81 l-290 82 -22 20 c-13 11 -25 28 -28 38
l-6 17 76 254 c42 139 83 273 92 296 l15 44 31 13 c17 7 36 11 41 10 6 -2 143
-41 304 -86z m1542 -440 c157 -45 297 -87 311 -95 28 -14 39 -33 39 -66 0 -28
-168 -548 -186 -575 -8 -13 -26 -26 -41 -29 l-26 -7 -294 84 -295 84 -24 24
c-13 13 -24 32 -24 43 0 21 166 550 182 581 9 17 40 35 63 36 5 1 138 -36 295
-80z m-2550 -89 l285 -81 23 -25 c12 -14 22 -35 22 -47 0 -12 -38 -146 -85
-297 l-84 -275 -22 -18 c-11 -9 -33 -17 -47 -17 -15 0 -155 36 -312 81 l-285
81 -22 21 -23 20 0 31 c0 33 143 524 166 568 28 54 51 51 384 -42z m3338 -135
l297 -85 23 -25 c12 -15 22 -33 22 -41 0 -12 -83 -280 -162 -522 l-20 -63 -34
-17 -34 -16 -298 85 -297 84 -22 22 c-13 12 -23 33 -23 46 0 20 148 501 176
571 5 14 50 43 72 46 1 0 136 -38 300 -85z m-2571 -80 c306 -86 320 -91 333
-116 18 -32 11 -67 -71 -336 l-80 -268 -21 -22 -21 -23 -34 0 c-19 0 -143 31
-276 69 -133 38 -261 74 -284 81 -24 6 -52 20 -63 32 l-20 22 0 33 c0 29 130
474 162 556 25 65 53 63 375 -28z m798 -225 c138 -39 262 -75 276 -81 25 -10
49 -45 49 -74 0 -7 -38 -136 -85 -287 l-84 -273 -26 -22 c-14 -13 -35 -23 -46
-23 -12 0 -150 36 -307 81 l-287 81 -23 22 -24 21 5 40 c2 22 37 146 76 275
40 129 74 243 77 252 3 9 14 29 26 43 l21 27 51 -5 c28 -3 164 -38 301 -77z"/>
<path d="M242 2362 l-18 -18 -78 -269 -78 -270 9 -25 8 -25 285 -82 c157 -45
297 -82 312 -83 l27 0 12 21 c6 12 24 65 39 118 15 53 51 174 79 269 l51 173
-10 19 c-5 10 -18 21 -27 24 -86 25 -583 166 -588 166 -3 0 -13 -8 -23 -18z"/>
<path d="M1021 2132 c-19 -35 -161 -531 -161 -561 l0 -30 18 -9 c30 -17 566
-166 591 -165 12 1 27 5 32 10 12 12 169 537 169 566 0 14 -6 30 -13 36 -18
15 -565 171 -599 171 l-27 0 -10 -18z"/>
<path d="M1591 1171 c-7 -5 -51 -132 -97 -282 l-85 -274 6 -21 c2 -12 13 -25
22 -29 31 -12 575 -165 588 -165 32 0 36 13 155 408 l53 174 -20 19 -19 19
-282 80 c-155 44 -288 80 -294 80 -7 0 -19 -4 -27 -9z"/>
<path d="M0 2263 c0 -108 2 -194 4 -192 2 2 25 75 50 162 l47 158 -6 19 -6 18
-44 16 -45 15 0 -196z"/>
<path d="M10 1600 l-10 -19 2 -306 3 -307 225 -64 225 -65 22 10 22 10 22 73
c12 40 48 161 80 267 63 207 67 232 45 250 -19 16 -559 171 -596 171 l-29 0
-11 -20z"/>
<path d="M588 650 l-17 -10 -35 -113 c-86 -276 -126 -417 -126 -440 0 -33 12
-41 96 -66 l71 -21 254 0 254 0 68 226 68 226 -14 21 -13 21 -270 77 c-318 92
-314 91 -336 79z"/>
<path d="M1356 408 c-13 -21 -126 -379 -126 -400 l0 -8 353 0 353 0 32 109
c37 127 38 133 15 153 -20 16 -554 169 -590 168 l-23 0 -14 -22z"/>
</g>
</svg>
